<?xml version="1.0" encoding="utf-8"?>
<!-- Generator: Adobe Illustrator 28.0.0, SVG Export Plug-In . SVG Version: 6.00 Build 0)  -->
<svg version="1.1" id="Layer_1" xmlns="http://www.w3.org/2000/svg" xmlns:xlink="http://www.w3.org/1999/xlink" x="0px" y="0px"
	 viewBox="0 0 80 80" style="enable-background:new 0 0 80 80;" xml:space="preserve">
<style type="text/css">
	.st0{fill:none;stroke:#253948;stroke-width:1.25;stroke-linecap:round;stroke-linejoin:round;}
	.st1{fill:#253948;}
</style>
<path class="st0" d="M34.6,25.6c-2.9,13.3-0.8,25.5,5.4,32.7"/>
<circle class="st0" cx="37.7" cy="41.8" r="19.7"/>
<circle class="st0" cx="37.7" cy="41.8" r="16.7"/>
<polyline class="st0" points="21.9,54.8 8,69.6 10.4,72 23.7,56.8 "/>
<path class="st0" d="M52.5,49.7c0,0-5.1-2.8-9.9-0.4"/>
<path class="st0" d="M53.7,43.7c0,0-6-4.2-11.6-0.6"/>
<path class="st0" d="M53.8,37.2c-1.7-2.2-6.4-3.4-11.2-1"/>
<path class="st0" d="M34,33c0,0,1.5-1.7,6.3-1.7"/>
<path class="st0" d="M34,41.4c0,0,1.5-1.7,6.3-1.7"/>
<path class="st0" d="M38.8,55.7c0,0,1.5-1.7,6.3-1.7"/>
<path class="st1" d="M75.2,9.9c-0.3-0.4-0.8-0.4-1.2-0.1c-2.5,2.7-5.7,4.1-8.9,3.9c-7.9-0.9-13.8-1.6-16.7,5.4
	c-0.9,2.1-1.1,4.5-0.8,6.7c3.6-3.7,8.1-5.8,12.6-5.9c-3.9,2.2-7,4.9-9.3,7.6c0.5,0.3,0.9,0.6,1.3,1c0.5,0.5,0.9,0.9,1.4,1.3
	c1.5,1.2,2.1,2.9,1.9,4.7c2.4,0.4,4.9-0.2,7.1-1.6c8-4.5,11.3-16.4,12.4-22.2C75.4,10.5,75.3,10.2,75.2,9.9z"/>
</svg>
