<?xml version="1.0" encoding="utf-8"?>
<!-- Generator: Adobe Illustrator 28.0.0, SVG Export Plug-In . SVG Version: 6.00 Build 0)  -->
<svg version="1.1" id="Layer_1" xmlns="http://www.w3.org/2000/svg" xmlns:xlink="http://www.w3.org/1999/xlink" x="0px" y="0px"
	 viewBox="0 0 200 200" style="enable-background:new 0 0 200 200;" xml:space="preserve">
<style type="text/css">
	.st0{fill:none;stroke:#253948;stroke-width:1.25;stroke-linecap:round;stroke-linejoin:round;}
	.st1{fill:#253948;stroke:#253948;stroke-width:1.25;stroke-linecap:round;stroke-linejoin:round;}
	.st2{fill:#253948;}
</style>
<path class="st0" d="M12.3,101.3c4-0.4,8-1.3,11.8-2.7c19.6-7.4,35.8-2.5,51.4,10.7c2.8,2.3,10.4,8.7,12.8,17.3
	c11.1,3.6,17,5.7,21.3,7.9c10,5.2,10.3,14.3-4.6,11.9c-5.6-0.9-16.5-3.1-21.8-4.4c-4.3-1.1-25.7-19.5-25.7-19.5"/>
<path class="st0" d="M105.2,160.6c0,0,20.3,11.3,34.6,10.1c3.5-0.3,23.5-2,38.8-6.9c14.1-4.5,6.6-13.6-9.1-10.5
	c-4.4,0.9-23.1,3.1-28.1,1.7c-4.1-1.2-16.7-7.7-25.5-10"/>
<path class="st0" d="M99.2,169.5c0,0,27.5,10.4,37.5,8.1c0,0,33.6-5.2,45-9c5.7-1.9,11.4-5.4,10.4-9.7c-1.1-4.7-8.5-4.5-8.5-4.5"/>
<path class="st0" d="M126.9,177.1c-0.6,0.3-37.9-0.6-47.5-2.6c-22.8-4.6-44.4-31.8-67.4-29.9"/>
<path class="st1" d="M182.7,162.1c1.1-0.8,2.1-2.8-5.4-0.8l-7.4,1.9l0.4,2.9C170.3,166,180,163.9,182.7,162.1z"/>
<path class="st1" d="M189.1,164.5c0,0,2.7-2.3-4.8-0.3l-7.4,1.9c0,0-0.3,2.9,0.4,2.9C185.4,168.6,189.1,164.5,189.1,164.5z"/>
<path class="st1" d="M110.6,146.7c0,0,5.7-3.9-0.2-6.5c-1.9-0.8-5.8-1.6-8.2-1.1c-1.9,0.4-6.1,5.5-1,6.1
	C102.2,145.5,110.6,146.7,110.6,146.7z"/>
<path class="st0" d="M150.4,21.6c0.1-0.2,0-0.4-0.2-0.4c-0.1,0-0.3,0-0.3,0.1c-2.7,2.6-9.2,9.8-9.4,17c-0.3,8.7,6.9,19.1,9.1,27.1
	c1.6,5.8-0.8,13.9-2.4,18.4c-0.1,0.3,0.1,0.5,0.3,0.6c0.2,0.1,0.4,0,0.5-0.2c2.6-3.8,6.6-10.5,7.4-16.6c1.2-9.2-10-21-8.9-31.9
	C146.9,30.6,149.3,24.3,150.4,21.6z"/>
<path class="st0" d="M135.8,26.2c0-0.1,0-0.2-0.2-0.3c-0.1,0-0.2,0-0.2,0c-1.9,1.8-6.4,6.9-6.6,11.9c-0.2,6.1,4.9,13.4,6.4,19
	c1.1,4.1-0.6,9.7-1.7,12.9c-0.1,0.2,0,0.4,0.1,0.4c0.2,0.1,0.4,0,0.4-0.1c1.8-2.7,4.6-7.3,5.1-11.6c0.8-6.4-7-14.7-6.3-22.4
	C133.4,32.7,134.4,29.4,135.8,26.2z"/>
<path class="st0" d="M162.6,24.1c0-0.1,0-0.2-0.1-0.3c-0.1,0-0.2,0-0.2,0c-1.9,1.8-6.4,6.9-6.6,11.9c-0.2,6.1,4.9,13.4,6.4,19
	c1.1,4.1-0.5,9.7-1.7,12.9c-0.1,0.2,0,0.4,0.1,0.4c0.2,0.1,0.4,0,0.4-0.1c1.8-2.7,4.6-7.3,5.1-11.6c0.8-6.4-7-14.7-6.3-22.4
	C160.2,30.5,161.2,27.2,162.6,24.1z"/>
<path class="st2" d="M168.5,108.3c-0.6,5.9-2.8,18.1-11.7,23.6c-3.3,2.3-7.5,3-11.4,2c-1.9-0.6-3.9,0.2-4.8,2
	c-0.9,1.8-1.5,3.7-1.9,5.7c-0.1,0.8-0.9,1.4-1.7,1.3c-0.8-0.1-1.3-0.9-1.2-1.7c0.1-0.6,2.1-13.6,16.2-22c-5.4,0.6-10.4,3.3-14.2,7.3
	c-0.7-2.2-0.7-4.6,0-6.8c2.4-7.3,9.5-7.3,19-7.3c3.8-0.1,7.4-1.9,10-4.9c0.4-0.4,1-0.4,1.4-0.1C168.5,107.7,168.6,108,168.5,108.3z"
	/>
<path class="st2" d="M128.2,109c-0.3,3.3-1.6,10.1-6.7,13.1c-1.9,1.3-4.3,1.7-6.5,1.1c-1.1-0.4-2.3,0.1-2.8,1.1
	c-0.5,1-0.9,2.1-1.1,3.2c-0.1,0.5-0.5,0.8-1,0.7c-0.5-0.1-0.8-0.5-0.7-0.9c0-0.3,1.2-7.6,9.3-12.2c-3.1,0.4-6,1.8-8.2,4.1
	c-0.4-1.2-0.4-2.6,0-3.8c1.4-4.1,5.5-4.1,10.9-4.1c2.2-0.1,4.3-1.1,5.7-2.7c0.2-0.2,0.6-0.2,0.8,0
	C128.2,108.6,128.2,108.8,128.2,109z"/>
<path class="st2" d="M137.1,79.3c-0.4,3.7-1.8,11.5-7.3,14.9c-2.1,1.5-4.7,1.9-7.1,1.2c-1.2-0.4-2.4,0.1-3,1.3
	c-0.5,1.1-0.9,2.4-1.2,3.6c-0.1,0.5-0.5,0.9-1,0.8c-0.5-0.1-0.8-0.6-0.8-1.1c0.1-0.4,1.3-8.6,10.1-13.9c-3.4,0.4-6.5,2.1-8.9,4.7
	c-0.5-1.4-0.5-2.9,0-4.3c1.5-4.6,5.9-4.6,11.9-4.6c2.4-0.1,4.7-1.2,6.2-3.1c0.2-0.3,0.6-0.3,0.9,0C137,78.9,137.1,79.1,137.1,79.3z"
	/>
</svg>
