<?xml version="1.0" encoding="utf-8"?>
<!-- Generator: Adobe Illustrator 28.0.0, SVG Export Plug-In . SVG Version: 6.00 Build 0)  -->
<svg version="1.1" id="Layer_1" xmlns="http://www.w3.org/2000/svg" xmlns:xlink="http://www.w3.org/1999/xlink" x="0px" y="0px"
	 viewBox="0 0 80 80" style="enable-background:new 0 0 80 80;" xml:space="preserve">
<style type="text/css">
	.st0{fill:none;stroke:#253948;stroke-width:1.25;stroke-linecap:round;stroke-linejoin:round;}
	.st1{fill:none;stroke:#253948;stroke-linecap:round;stroke-linejoin:round;}
	.st2{fill:#253948;}
</style>
<path class="st0" d="M38.2,75.1c0.8-12.9-1.6-15.6-1.2-20.2c0.7-6-1.9-10.2-6.7-13.7c-0.9-0.6-3.2-2.3-5.8-2.3
	c-1.1-1.9-2.4-3.7-3.8-5.4c-2.1-2.4-4.7-1.9-3,2.2c0.7,1.5,2,4.4,2.8,5.8c0.6,1.1,7.3,5.8,7.3,5.8"/>
<path class="st0" d="M13.8,36.5c0,0-4.7-4.9-5.3-9c-0.7-3.8-1-7.6-0.9-11.4c0.2-4.3,3.4-2.8,3.6,1.8c0.1,1.3,0.8,6.7,1.6,8
	c0.6,1.1,3.4,4.1,4.6,6.5"/>
<path class="st0" d="M11.7,38.9c0,0-4.9-7-5-10c0,0-1-9.8-0.7-13.3C6.2,13.9,6.7,12,8,12s1.9,2.1,1.9,2.1"/>
<path class="st0" d="M7.6,31.6c0,0.2,2.9,10.6,4.1,13.2c3.4,7,15,11.4,13.2,19.9l-2.3,10.4"/>
<path class="st0" d="M43,75.1c-0.8-12.9,1.6-15.3,1.1-20c-0.7-6,1.9-10.2,6.7-13.7c0.8-0.6,3.2-2.3,5.8-2.3c1.1-1.9,2.4-3.7,3.8-5.4
	c2.2-2.4,4.8-1.9,3,2.2c-0.7,1.5-2,4.4-2.8,5.8c-0.6,1.1-7.3,5.8-7.3,5.8"/>
<path class="st0" d="M67.4,36.8c0,0,4.7-4.9,5.3-9c0.7-3.8,1-7.6,0.9-11.4c-0.2-4.3-3.4-2.8-3.6,1.8c-0.1,1.3-0.8,6.7-1.6,8
	c-0.6,1.1-3.4,4.1-4.7,6.5"/>
<path class="st0" d="M69.4,39.1c0,0,4.9-7,5-10c0,0,0.9-9.8,0.7-13.3c-0.1-1.7-0.7-3.6-2-3.6s-1.9,2.1-1.9,2.1"/>
<path class="st0" d="M73.6,31.9c0,0.2-2.9,10.6-4.1,13.2c-3.3,7-15,11.4-13.2,19.9l2.3,10.2"/>
<path class="st1" d="M53.5,35.2c0,0-1.3-3.8-3.5-5c2.5-1,3.5-4.5,3.5-4.5s1.3,3.9,3.5,4.5C54.8,31.6,53.5,35.2,53.5,35.2z"/>
<path class="st1" d="M29.5,17.2c0,0-1-3.1-2.8-4.1c2-0.8,2.8-3.7,2.8-3.7s1,3.1,2.8,3.7C30.6,14.3,29.5,17.2,29.5,17.2z"/>
<circle class="st1" cx="55" cy="19" r="1.5"/>
<circle class="st1" cx="25" cy="21" r="1.5"/>
<path class="st2" d="M50.5,12.9c-0.3,3.5-1.7,10.9-6.9,14.2c-2,1.4-4.4,1.8-6.7,1.2c-1.1-0.4-2.3,0.1-2.8,1.2
	c-0.5,1.1-0.9,2.2-1.1,3.4c-0.1,0.5-0.5,0.8-1,0.8c-0.5-0.1-0.8-0.5-0.7-1c0-0.3,1.2-8.2,9.6-13.2c-3.2,0.4-6.2,2-8.4,4.4
	c-0.4-1.3-0.4-2.8,0-4.1c1.4-4.4,5.6-4.4,11.2-4.4c2.3-0.1,4.4-1.2,5.9-2.9c0.2-0.2,0.6-0.3,0.8,0C50.5,12.6,50.6,12.7,50.5,12.9z"
	/>
</svg>
