<?xml version="1.0" encoding="UTF-8"?>
<svg id="Layer_1" data-name="Layer 1" xmlns="http://www.w3.org/2000/svg" viewBox="0 0 96.36 54.87">
  <defs>
    <style>
      .cls-1 {
        fill: #d7d1c9;
        stroke-width: 0px;
      }
    </style>
  </defs>
  <path class="cls-1" d="m26.86,7.99h53.4c.65,0,1.09-.46,1.09-1.14s-.44-1.14-1.09-1.14h-18.42c-1.85-3.76-4.69-5.7-8.5-5.7h0c-2.51,0-5.88,1.03-8.17,5.7h-18.31c-.65,0-1.09.46-1.09,1.14s.54,1.14,1.09,1.14Zm26.48-5.7h0c3.27,0,4.9,1.71,5.99,3.42h-11.66c.87-1.48,2.62-3.42,5.67-3.42Z"/>
  <path class="cls-1" d="m96.07,25.55c-1.42-6.05-5.88-8.9-13.19-8.56-.54-2.17-1.31-4.22-2.4-6.16-.22-.34-.54-.57-.98-.57h0l-51.98.46c-.44,0-.76.23-.98.57-1.53,3.08-2.51,6.27-2.94,9.58h0c-.11.91-.22,1.94-.22,2.97-2.29.8-6.87,1.71-9.26-.46-.98-.91-3.27-4.56-4.14-5.82-.22-.34-.54-.57-.87-.57H1.14c-.33,0-.76.23-.98.57-.22.34-.22.8,0,1.14s4.69,9.47,10.24,14.72c8.39,7.99,18.85,11.07,20.82,11.64,5.56,6.05,13.51,9.81,22.34,9.81s16.78-3.76,22.34-9.81c19.07-5.48,21.47-13.58,20.16-19.51ZM28.17,12.89l50.68-.46c.76,1.6,1.42,3.31,1.85,5.02-3.81,1.83-7.3,2.74-10.57,2.74-3.6,0-5.78-.8-7.96-1.6-2.29-.8-4.47-1.6-8.06-1.25-3.16.34-5.23,1.37-7.19,2.28-2.18,1.03-3.71,1.83-6.1,1.25-1.09-.34-1.85-.8-2.72-1.37-1.2-.8-2.62-1.6-4.9-2.05-3.05-.57-5.45.46-7.08,1.37.44-1.94,1.09-3.99,2.07-5.93ZM3,19.17h5.45c.87,1.37,2.94,4.68,4.25,5.82,3.16,2.85,8.17,1.83,10.68,1.14.33,5.7,2.18,11.07,5.34,15.51-4.03-1.48-11.01-4.56-16.78-10.04-3.81-3.65-7.3-9.47-8.94-12.43Zm22.56,5.48c0-.91,0-1.94.11-2.85.22-.11.54-.23.76-.46,1.53-.8,3.6-2.05,6.32-1.48,1.96.34,3.05,1.03,4.14,1.71.98.57,1.96,1.25,3.38,1.6.76.23,1.53.34,2.18.34,2.07,0,3.71-.8,5.45-1.71,1.85-.91,3.71-1.83,6.43-2.17,3.05-.34,4.9.34,7.08,1.14,2.18.8,4.58,1.71,8.61,1.71,3.49,0,7.19-.91,11.12-2.85.33,1.6.44,3.19.44,4.91,0,15.4-12.53,27.95-28.01,27.95s-28.01-12.55-28.01-27.84Zm52.86,17.11c3.38-4.91,5.34-10.72,5.34-17.11,0-1.83-.22-3.65-.54-5.48,4.03-.11,9.15.57,10.57,6.84,1.96,7.99-6.65,12.89-15.37,15.74Z"/>
  <path class="cls-1" d="m68.71,26.12c-.33-.23-.76-.23-1.09-.11-.11,0-6.32,3.08-11.55,3.54-1.74.11-3.71,1.94-4.8,3.65-.33.46-.54.91-.76,1.48-.11-.46-.33-.8-.54-1.14-.87-1.37-2.51-2.74-3.92-2.85-4.03-.34-8.83-2.62-8.83-2.74-.33-.23-.76-.11-1.09.11-.33.23-.54.68-.44,1.03,0,.23.54,6.27,3.92,8.67,1.74,1.14,3.71,1.6,5.56,1.6,1.2,0,2.4-.23,3.27-.57.98-.34,1.74-.91,2.07-1.6.44.91,1.31,1.71,2.72,2.28,1.09.46,2.62.68,4.14.68,2.29,0,4.8-.57,6.97-2.05,4.25-2.85,4.9-10.61,4.9-10.95,0-.34-.22-.8-.54-1.03Zm-21.36,10.61c-1.74.57-4.58.57-6.65-.91-1.42-.91-2.18-3.19-2.62-4.91,1.85.8,4.9,1.83,7.74,2.05.44,0,1.53.8,2.18,1.83.54.8.54,1.25.54,1.25,0,.11-.33.34-1.2.68Zm15.69-.57c-2.83,1.94-6.76,2.05-9.15,1.14-1.09-.34-1.42-.8-1.42-1.03-.11-.23.11-.91.65-1.83.98-1.48,2.51-2.62,3.16-2.62,3.92-.34,8.17-1.83,10.46-2.85-.44,2.17-1.53,5.7-3.71,7.19Z"/>
</svg>