<?xml version="1.0" encoding="utf-8"?>
<!-- Generator: Adobe Illustrator 28.0.0, SVG Export Plug-In . SVG Version: 6.00 Build 0)  -->
<svg version="1.1" id="Layer_1" xmlns="http://www.w3.org/2000/svg" xmlns:xlink="http://www.w3.org/1999/xlink" x="0px" y="0px"
	 viewBox="0 0 230 338" style="enable-background:new 0 0 230 338;" xml:space="preserve">
<style type="text/css">
	.st0{fill:none;stroke:#253948;stroke-width:1.25;stroke-linecap:round;stroke-linejoin:round;}
	.st1{fill:#6D4B00;}
</style>
<ellipse class="st0" cx="129.8" cy="223.9" rx="57.1" ry="30.7"/>
<path class="st0" d="M75.7,233.7c7.6-12.1,29-20.9,54.2-20.9s46.6,8.8,54.2,20.9"/>
<path class="st1" d="M184,233.7c-7.6,12.1-29,20.9-54.2,20.9s-46.6-8.8-54.2-20.9l0,0c7.6-12.1,29-20.9,54.2-20.9
	S176.4,221.5,184,233.7z"/>
<path class="st0" d="M186.9,225.3c0,1.1,0.1,2.2,0.1,3.3c0,39.5-25.6,71.5-57.1,71.5s-57.1-32-57.1-71.5c0-1.6-0.1-2.2,0-3.7"/>
<path class="st0" d="M73.2,238.5c-2.5-3.4-8.7-10.6-16.3-8.1c-11.2,3.7-12,18.4-9.3,27c4.6,14.7,20.2,24.9,35.8,13.3"/>
<path class="st0" d="M74.2,245.7c-2.2-3.2-8.4-10.6-15.1-9.8c-9,1-9.2,14.2-7.2,20.8c3.5,11.3,17.7,19.1,28.8,9.3"/>
<path class="st0" d="M52,256.2c7.2-3.9,14.8-7,22.6-9.3"/>
<path class="st0" d="M184.7,248.6c25,8.6,41.3,22.6,41.3,38.5c0,26.2-44.3,47.4-98.9,47.4s-98.9-21.2-98.9-47.4
	c0-10.7,7.4-20.6,19.9-28.5"/>
<path class="st0" d="M5.3,134c0,0,0.5,67,17.9,66.1c8.5-0.5,17.7-3.8,17.8-9c0.5-15.7-10-41.9-24.4-60.2S5.2,123.9,5.3,134z"/>
<path class="st0" d="M128,99.8c0,0-17.9,65-34.6,59.6c-8.1-2.6-16-5.6-15-13.4c2-15.7,20.6-38.1,39.4-52.2S130.7,90.1,128,99.8z"/>
<path class="st0" d="M6.8,122.3c0,0,26.2,70.8,41.2,116.7"/>
<path class="st0" d="M130.4,88.2c0,0-60.7,64.3-67.3,162.1"/>
<path class="st0" d="M73.8,66c0,0,3.7,67.4-13.8,67.5c-8.5,0.1-16.9-0.2-18.5-7.9c-3.1-15.5,7.4-42.6,20.7-61.9S73.2,55.9,73.8,66z"
	/>
<path class="st0" d="M72.3,54.3c0,0-36.7,80.8-12,198"/>
<path class="st0" d="M202.9,66.3H96.1c0,0-0.7-7.6,7-8.3c0,0-4.9-18.9,13-21.7c0,0,7.7-1.4,13,4.2c0,0-0.3-24.9,20.5-24.9
	c18.4,0,18,22.1,18,22.1s5.5-8.9,14.8-4.4c8.7,4.2,5.8,17.3,5.8,17.3S202.9,49.3,202.9,66.3z"/>
<path class="st0" d="M186.9,37.8c7.1-8.1,6.3-20.3-1.8-27.4s-20.3-6.3-27.4,1.8c-1.1,1.3-2.1,2.7-2.8,4.2"/>
</svg>
