<?xml version="1.0" encoding="utf-8"?>
<!-- Generator: Adobe Illustrator 28.0.0, SVG Export Plug-In . SVG Version: 6.00 Build 0)  -->
<svg version="1.1" id="Layer_1" xmlns="http://www.w3.org/2000/svg" xmlns:xlink="http://www.w3.org/1999/xlink" x="0px" y="0px"
	 viewBox="0 0 80 80" style="enable-background:new 0 0 80 80;" xml:space="preserve">
<style type="text/css">
	.st0{fill:none;stroke:#253948;stroke-width:1.25;stroke-linecap:round;stroke-linejoin:round;}
	.st1{fill:#253948;}
</style>
<path class="st0" d="M22,23.7h40.3c3.1,0,5.7,2.6,5.7,5.7v32c0,3.1-2.6,5.7-5.7,5.7H22c-3.1,0-5.7-2.6-5.7-5.7v-32
	C16.3,26.2,18.9,23.7,22,23.7z"/>
<line class="st0" x1="16.3" y1="30.2" x2="68.1" y2="30.2"/>
<path class="st0" d="M43.2,23.7c0,0-17.1-9.8-12.3-14.3C36.6,4.1,43.2,23.7,43.2,23.7z"/>
<path class="st0" d="M43.2,23.7c0,0,17.1-9.8,12.3-14.3C49.8,4.1,43.2,23.7,43.2,23.7z"/>
<path class="st0" d="M43.2,23.7c0,0,11.8-1.2,20.2-10.1"/>
<path class="st0" d="M42.8,23.7c0,0-11.8-1.2-20.2-10.1"/>
<path class="st1" d="M55.5,37.5c-0.4,4-2.1,12.4-8.9,16.2c-2.5,1.6-5.7,2.1-8.6,1.4c-1.4-0.4-3,0.2-3.6,1.4
	c-0.7,1.2-1.1,2.6-1.4,3.9c-0.1,0.6-0.7,1-1.3,0.9c-0.6-0.1-1-0.6-0.9-1.2c0.1-0.4,1.6-9.3,12.3-15.1c-4.1,0.4-7.9,2.2-10.8,5
	c-0.6-1.5-0.6-3.1,0-4.7c1.8-5,7.2-5,14.4-5c2.9-0.1,5.7-1.3,7.6-3.3c0.3-0.3,0.7-0.3,1.1,0C55.5,37.1,55.6,37.3,55.5,37.5z"/>
</svg>
