<?xml version="1.0" encoding="utf-8"?>
<!-- Generator: Adobe Illustrator 28.0.0, SVG Export Plug-In . SVG Version: 6.00 Build 0)  -->
<svg version="1.1" id="Layer_1" xmlns="http://www.w3.org/2000/svg" xmlns:xlink="http://www.w3.org/1999/xlink" x="0px" y="0px"
	 viewBox="0 0 42.9 36.3" style="enable-background:new 0 0 42.9 36.3;" xml:space="preserve">
<style type="text/css">
	.st0{fill:#253948;}
	.st1{fill:none;stroke:#253948;stroke-width:0.5;stroke-linecap:round;stroke-linejoin:round;}
</style>
<g>
	<path class="st0" d="M22,19.4c-0.2,2.4-1.2,7.5-4.9,9.7c-1.4,0.9-3.1,1.2-4.8,0.8c-0.8-0.3-1.6,0.1-2,0.8c-0.4,0.7-0.6,1.5-0.8,2.4
		c-0.1,0.3-0.4,0.6-0.7,0.5c-0.3-0.1-0.6-0.4-0.5-0.7c0-0.2,0.9-5.6,6.8-9.1c-2.3,0.3-4.4,1.3-5.9,3c-0.3-0.9-0.3-1.9,0-2.8
		c1-3,4-3,7.9-3c1.6-0.1,3.1-0.8,4.2-2c0.2-0.2,0.4-0.2,0.6,0C22,19.1,22.1,19.2,22,19.4z"/>
	<g>
		<path class="st1" d="M30.4,25.6c0.8-0.9,1.5-2,1.7-3.2"/>
		<g>
			<path class="st1" d="M24.7,25.6c0,0,3.2-2.7,2.3-5.9c-0.9-3.2-3.1-5.5-2.1-7.3"/>
			<path class="st1" d="M32.1,22.4c0.2-0.9,0.2-1.8,0-2.8c-0.9-3.2-2.9-5.3-2.1-7.9"/>
			<path class="st1" d="M27.9,25.5c0,0.1,3-3.1,1-7.8c-1.7-4.2-3.5-7.2-1-9.8"/>
		</g>
	</g>
</g>
</svg>
