<?xml version="1.0" encoding="utf-8"?>
<!-- Generator: Adobe Illustrator 28.0.0, SVG Export Plug-In . SVG Version: 6.00 Build 0)  -->
<svg version="1.1" id="Layer_1" xmlns="http://www.w3.org/2000/svg" xmlns:xlink="http://www.w3.org/1999/xlink" x="0px" y="0px"
	 viewBox="0 0 80 80" style="enable-background:new 0 0 80 80;" xml:space="preserve">
<style type="text/css">
	.st0{fill:none;stroke:#253948;stroke-width:1.25;stroke-linecap:round;stroke-linejoin:round;}
	.st1{fill:#253948;}
</style>
<path class="st0" d="M0,49.4C4.2,47.5,10.2,48,14.6,44c5.7-5.1,11.8-5.6,18.9-3.2c1.2,0.4,4.7,1.6,6.6,4.2c2.7-0.3,5.5-0.3,8.3-0.1
	c4.1,0.5,5.4,3.5,0,4.6c-2,0.4-6,1.1-8,1.4C38.7,51.1,29,47.7,29,47.7"/>
<path class="st0" d="M50.3,54.3c0,0,8.4,1.1,13.1-1.2c4.3-2.1,8.4-4.6,12.2-7.5c4.2-3.4,0.4-5.5-4.5-2.4c-1.4,0.9-7.4,4.1-9.3,4.3
	c-1.5,0.1-6.7-0.4-10,0"/>
<path class="st0" d="M49.4,58.1c0,0,10.7-0.1,13.8-2.2c0,0,10.7-6.2,14.1-9c1.7-1.4,3.2-3.3,2.2-4.7S76,41.8,76,41.8"/>
<path class="st0" d="M59.8,57c-0.2,0.2-12.9,4.8-16.5,5.4c-9.6,1.7-20.2-3.8-29.9,1.1C9.4,65.6,1,69.2,1,69.2"/>
<path class="st1" d="M66.3,15.6c-0.4,3.8-1.8,11.9-7.3,15.4c-2.1,1.5-4.7,2-7.1,1.3c-1.2-0.4-2.5,0.1-3,1.3
	c-0.5,1.2-0.9,2.4-1.2,3.7c-0.1,0.5-0.5,0.9-1.1,0.8c-0.5-0.1-0.8-0.6-0.8-1.1c0.1-0.4,1.3-8.9,10.2-14.4c-3.4,0.4-6.6,2.1-8.9,4.8
	c-0.5-1.4-0.5-3,0-4.4c1.5-4.8,6-4.8,11.9-4.8c2.4-0.1,4.7-1.3,6.3-3.2c0.2-0.3,0.6-0.3,0.9,0C66.2,15.2,66.3,15.4,66.3,15.6z"/>
</svg>
