<?xml version="1.0" encoding="utf-8"?>
<!-- Generator: Adobe Illustrator 28.0.0, SVG Export Plug-In . SVG Version: 6.00 Build 0)  -->
<svg version="1.1" id="Layer_1" xmlns="http://www.w3.org/2000/svg" xmlns:xlink="http://www.w3.org/1999/xlink" x="0px" y="0px"
	 viewBox="0 0 80 80" style="enable-background:new 0 0 80 80;" xml:space="preserve">
<style type="text/css">
	.st0{fill:none;stroke:#253948;stroke-width:1.25;stroke-linecap:round;stroke-linejoin:round;}
	.st1{fill:#253948;}
</style>
<path class="st0" d="M52.6,45.3c0,0,6.8-6.2,4.8-13.5s-6.6-12.5-4.5-16.7"/>
<path class="st0" d="M68.3,38.1c0.5-2.1,0.5-4.2-0.1-6.3c-2-7.3-6.1-12.2-4.4-18"/>
<path class="st0" d="M64.6,45.4c1.8-2.1,3.1-4.6,3.7-7.3"/>
<path class="st0" d="M59.4,45.1c0,0.3,6.5-7,2.2-17.9c-3.7-9.5-7.5-16.4-2.1-22.5"/>
<g>
	<path class="st0" d="M33.4,38.3c-8.6,3.4-18.3-0.9-21.7-9.4s0.9-18.3,9.4-21.7S39.5,8,42.8,16.6c0.8,1.9,1.2,4,1.2,6.1
		c0,2.6-0.6,5.1-1.7,7.4"/>
	<path class="st0" d="M32.3,36.3c-7.5,2.7-15.8-1.1-18.5-8.6s1.1-15.8,8.6-18.5s15.8,1.1,18.5,8.6c0.6,1.6,0.9,3.3,0.9,5
		c0,2.1-0.4,4.1-1.3,6"/>
	<path class="st0" d="M27.2,24.6h-0.1c-0.1,0-0.2-0.1-0.2-0.3V13.9c0-0.1,0.1-0.3,0.3-0.3l0,0c0.1,0,0.3,0.1,0.3,0.2l0,0v9.7
		l3.7-3.8c0.1-0.1,0.3-0.1,0.4,0l0,0c0.1,0.1,0.1,0.3,0,0.4l0,0l-4.2,4.3C27.4,24.5,27.3,24.6,27.2,24.6z"/>
</g>
<path class="st1" d="M50.9,28.7C50.2,35,47.8,48.2,38,54.1c-3.7,2.5-8.3,3.3-12.6,2.1c-2.1-0.7-4.3,0.2-5.3,2.2c-1,2-1.7,4-2.1,6.2
	c-0.1,0.9-1,1.5-1.9,1.4c-0.9-0.1-1.5-0.9-1.4-1.8c0.1-0.6,2.3-14.7,17.9-23.8c-6,0.7-11.5,3.5-15.6,7.9c-0.8-2.4-0.8-5,0-7.3
	c2.6-7.9,10.5-7.9,21-7.9c4.2-0.2,8.2-2.1,11-5.3c0.4-0.4,1.1-0.5,1.5-0.1C50.8,28,50.9,28.3,50.9,28.7z"/>
</svg>
