<?xml version="1.0" encoding="utf-8"?>
<!-- Generator: Adobe Illustrator 28.0.0, SVG Export Plug-In . SVG Version: 6.00 Build 0)  -->
<svg version="1.1" id="Layer_1" xmlns="http://www.w3.org/2000/svg" xmlns:xlink="http://www.w3.org/1999/xlink" x="0px" y="0px"
	 viewBox="0 0 98 80" style="enable-background:new 0 0 98 80;" xml:space="preserve">
<style type="text/css">
	.st0{fill:none;stroke:#253948;stroke-width:1.25;stroke-linecap:round;stroke-linejoin:round;}
	.st1{fill:#253948;}
</style>
<path class="st0" d="M89.5,42.8L77.8,43c-0.2,0-0.4-0.1-0.4-0.3c0,0,0,0,0,0v-7.5c0-0.2,0.3-0.4,0.6-0.4h8.3"/>
<path class="st0" d="M66,58.3h7.7"/>
<path class="st0" d="M85.2,58.3h5c0.4,0,0.8-0.3,0.8-0.7v-11c0-0.1,0-0.1,0-0.2l-5.4-14.3c-0.1-0.3-0.5-0.5-0.8-0.5H67.2"/>
<path class="st0" d="M22.6,58.3h42.9c0.5,0,0.8-0.4,0.8-0.8v0V26.3c0-0.5-0.4-0.8-0.8-0.8l0,0H5.8c-0.5,0-0.8,0.4-0.8,0.8v31.2
	c0,0.5,0.4,0.8,0.8,0.8c0,0,0,0,0,0h5.3"/>
<circle class="st0" cx="79.4" cy="59.5" r="5.3"/>
<circle class="st0" cx="16.9" cy="59.5" r="5.3"/>
<path class="st0" d="M91,54.4h-4c-0.4,0-0.7-0.3-0.7-0.6v-3.2c0-0.4,0.3-0.6,0.7-0.6c0,0,0,0,0,0h4"/>
<path class="st0" d="M42.6,37.4c0,0,5.4-4.9,3.8-10.6s-5.2-9.9-3.5-13.2"/>
<path class="st0" d="M55,31.7c0.4-1.6,0.4-3.3,0-5c-1.6-5.8-4.8-9.7-3.5-14.3"/>
<path class="st0" d="M52.1,37.5c1.4-1.7,2.5-3.7,3-5.8"/>
<path class="st0" d="M48,37.2c0,0.2,5.1-5.5,1.7-14.1c-3-7.5-5.9-13-1.7-17.8"/>
<path class="st1" d="M38,33c-0.3,3.1-1.6,9.6-6.7,12.5c-1.9,1.2-4.3,1.6-6.6,1c-1.1-0.3-2.3,0.1-2.8,1.1c-0.5,1-0.9,2-1.1,3
	c-0.1,0.4-0.5,0.7-1,0.7c-0.5-0.1-0.8-0.5-0.7-0.9c0-0.3,1.2-7.2,9.3-11.6c-3.1,0.3-6,1.7-8.2,3.9c-0.4-1.2-0.4-2.4,0-3.6
	c1.4-3.9,5.5-3.9,11-3.9c2.2-0.1,4.3-1,5.8-2.6c0.2-0.2,0.6-0.2,0.8,0C37.9,32.7,38,32.8,38,33z"/>
</svg>
